<mxfile host="Electron" agent="Mozilla/5.0 (Windows NT 10.0; Win64; x64) AppleWebKit/537.36 (KHTML, like Gecko) draw.io/26.0.4 Chrome/128.0.6613.186 Electron/32.2.5 Safari/537.36" version="26.0.4">
  <diagram name="Page-1" id="h6WAbtob5A3DvzjG_7v6">
    <mxGraphModel dx="2223" dy="1035" grid="1" gridSize="10" guides="1" tooltips="1" connect="1" arrows="1" fold="1" page="1" pageScale="1" pageWidth="850" pageHeight="1100" math="0" shadow="0">
      <root>
        <mxCell id="0" />
        <mxCell id="1" parent="0" />
        <mxCell id="2t71MfV1NQEHH0kRvepr-9" style="edgeStyle=orthogonalEdgeStyle;rounded=0;orthogonalLoop=1;jettySize=auto;html=1;entryX=0;entryY=0.5;entryDx=0;entryDy=0;fontFamily=Helvetica;fontSize=12;fontColor=default;strokeWidth=2;" edge="1" parent="1" source="2t71MfV1NQEHH0kRvepr-11" target="2t71MfV1NQEHH0kRvepr-4">
          <mxGeometry relative="1" as="geometry" />
        </mxCell>
        <mxCell id="2t71MfV1NQEHH0kRvepr-2" value="&lt;span style=&quot;font-size: 18px;&quot;&gt;Client&lt;/span&gt;" style="rounded=1;whiteSpace=wrap;html=1;" vertex="1" parent="1">
          <mxGeometry x="-80" y="540" width="120" height="60" as="geometry" />
        </mxCell>
        <mxCell id="2t71MfV1NQEHH0kRvepr-12" style="edgeStyle=orthogonalEdgeStyle;rounded=0;orthogonalLoop=1;jettySize=auto;html=1;entryX=0;entryY=0.5;entryDx=0;entryDy=0;fontFamily=Helvetica;fontSize=12;fontColor=default;strokeWidth=2;" edge="1" parent="1" source="2t71MfV1NQEHH0kRvepr-4" target="2t71MfV1NQEHH0kRvepr-5">
          <mxGeometry relative="1" as="geometry" />
        </mxCell>
        <mxCell id="2t71MfV1NQEHH0kRvepr-4" value="&lt;font style=&quot;font-size: 18px;&quot;&gt;Middleware&lt;/font&gt;" style="rounded=1;whiteSpace=wrap;html=1;" vertex="1" parent="1">
          <mxGeometry x="190" y="540" width="120" height="60" as="geometry" />
        </mxCell>
        <mxCell id="2t71MfV1NQEHH0kRvepr-23" style="edgeStyle=orthogonalEdgeStyle;rounded=0;orthogonalLoop=1;jettySize=auto;html=1;entryX=0.5;entryY=0;entryDx=0;entryDy=0;fontFamily=Helvetica;fontSize=12;fontColor=default;strokeWidth=2;" edge="1" parent="1" source="2t71MfV1NQEHH0kRvepr-24" target="2t71MfV1NQEHH0kRvepr-2">
          <mxGeometry relative="1" as="geometry">
            <Array as="points">
              <mxPoint x="-20" y="500" />
            </Array>
          </mxGeometry>
        </mxCell>
        <mxCell id="2t71MfV1NQEHH0kRvepr-5" value="&lt;font style=&quot;font-size: 18px;&quot;&gt;Router&lt;/font&gt;" style="rounded=1;whiteSpace=wrap;html=1;" vertex="1" parent="1">
          <mxGeometry x="425" y="540" width="120" height="60" as="geometry" />
        </mxCell>
        <mxCell id="2t71MfV1NQEHH0kRvepr-17" style="edgeStyle=orthogonalEdgeStyle;rounded=0;orthogonalLoop=1;jettySize=auto;html=1;fontFamily=Helvetica;fontSize=12;fontColor=default;exitX=1;exitY=0.5;exitDx=0;exitDy=0;entryX=0.5;entryY=0;entryDx=0;entryDy=0;endArrow=none;endFill=0;strokeWidth=2;" edge="1" parent="1" source="2t71MfV1NQEHH0kRvepr-7" target="2t71MfV1NQEHH0kRvepr-16">
          <mxGeometry relative="1" as="geometry">
            <Array as="points">
              <mxPoint x="1180" y="525" />
            </Array>
          </mxGeometry>
        </mxCell>
        <mxCell id="2t71MfV1NQEHH0kRvepr-8" value="&lt;span style=&quot;font-size: 18px;&quot;&gt;Services&lt;/span&gt;" style="swimlane;whiteSpace=wrap;html=1;rounded=1;strokeColor=default;align=center;verticalAlign=middle;fontFamily=Helvetica;fontSize=12;fontColor=default;fillColor=default;startSize=40;" vertex="1" parent="1">
          <mxGeometry x="690" y="415" width="310" height="310" as="geometry" />
        </mxCell>
        <mxCell id="2t71MfV1NQEHH0kRvepr-7" value="&lt;font style=&quot;font-size: 18px;&quot;&gt;DB Logic&lt;/font&gt;" style="rounded=1;whiteSpace=wrap;html=1;" vertex="1" parent="2t71MfV1NQEHH0kRvepr-8">
          <mxGeometry x="95" y="80" width="120" height="60" as="geometry" />
        </mxCell>
        <mxCell id="2t71MfV1NQEHH0kRvepr-6" value="&lt;font style=&quot;font-size: 18px;&quot;&gt;Socket.io&lt;/font&gt;" style="rounded=1;whiteSpace=wrap;html=1;" vertex="1" parent="2t71MfV1NQEHH0kRvepr-8">
          <mxGeometry x="95" y="190" width="120" height="60" as="geometry" />
        </mxCell>
        <mxCell id="2t71MfV1NQEHH0kRvepr-10" value="" style="edgeStyle=orthogonalEdgeStyle;rounded=0;orthogonalLoop=1;jettySize=auto;html=1;entryX=0;entryY=0.5;entryDx=0;entryDy=0;fontFamily=Helvetica;fontSize=12;fontColor=default;strokeWidth=2;endArrow=none;endFill=0;" edge="1" parent="1" source="2t71MfV1NQEHH0kRvepr-2" target="2t71MfV1NQEHH0kRvepr-11">
          <mxGeometry relative="1" as="geometry">
            <mxPoint x="60" y="570" as="sourcePoint" />
            <mxPoint x="190" y="570" as="targetPoint" />
          </mxGeometry>
        </mxCell>
        <mxCell id="2t71MfV1NQEHH0kRvepr-11" value="Send request" style="text;html=1;align=center;verticalAlign=middle;whiteSpace=wrap;rounded=0;fontFamily=Helvetica;fontSize=12;fontColor=default;" vertex="1" parent="1">
          <mxGeometry x="90" y="555" width="60" height="30" as="geometry" />
        </mxCell>
        <mxCell id="2t71MfV1NQEHH0kRvepr-18" value="&lt;font style=&quot;font-size: 18px;&quot;&gt;Server&lt;/font&gt;" style="swimlane;whiteSpace=wrap;html=1;rounded=1;strokeColor=default;align=center;verticalAlign=middle;fontFamily=Helvetica;fontSize=12;fontColor=default;fillColor=default;startSize=50;" vertex="1" parent="1">
          <mxGeometry x="160" y="290" width="1130" height="510" as="geometry" />
        </mxCell>
        <mxCell id="2t71MfV1NQEHH0kRvepr-16" value="&lt;font style=&quot;font-size: 18px;&quot;&gt;Redis&lt;/font&gt;" style="rounded=1;whiteSpace=wrap;html=1;" vertex="1" parent="2t71MfV1NQEHH0kRvepr-18">
          <mxGeometry x="960" y="280" width="120" height="60" as="geometry" />
        </mxCell>
        <mxCell id="2t71MfV1NQEHH0kRvepr-20" value="Real-time update" style="text;html=1;align=center;verticalAlign=middle;whiteSpace=wrap;rounded=0;fontFamily=Helvetica;fontSize=12;fontColor=default;" vertex="1" parent="2t71MfV1NQEHH0kRvepr-18">
          <mxGeometry x="160" y="330" width="90" height="30" as="geometry" />
        </mxCell>
        <mxCell id="2t71MfV1NQEHH0kRvepr-22" style="edgeStyle=orthogonalEdgeStyle;rounded=0;orthogonalLoop=1;jettySize=auto;html=1;entryX=1;entryY=0.5;entryDx=0;entryDy=0;fontFamily=Helvetica;fontSize=12;fontColor=default;strokeWidth=2;" edge="1" parent="2t71MfV1NQEHH0kRvepr-18">
          <mxGeometry relative="1" as="geometry">
            <mxPoint x="530" y="270" as="sourcePoint" />
            <mxPoint x="385" y="270" as="targetPoint" />
          </mxGeometry>
        </mxCell>
        <mxCell id="2t71MfV1NQEHH0kRvepr-15" style="edgeStyle=orthogonalEdgeStyle;rounded=0;orthogonalLoop=1;jettySize=auto;html=1;fontFamily=Helvetica;fontSize=12;fontColor=default;strokeWidth=2;" edge="1" parent="2t71MfV1NQEHH0kRvepr-18">
          <mxGeometry relative="1" as="geometry">
            <mxPoint x="385" y="290" as="sourcePoint" />
            <mxPoint x="530" y="290" as="targetPoint" />
            <Array as="points">
              <mxPoint x="530" y="290" />
            </Array>
          </mxGeometry>
        </mxCell>
        <mxCell id="2t71MfV1NQEHH0kRvepr-24" value="Respond to HTTP requests" style="text;html=1;align=center;verticalAlign=middle;whiteSpace=wrap;rounded=0;fontFamily=Helvetica;fontSize=12;fontColor=default;" vertex="1" parent="2t71MfV1NQEHH0kRvepr-18">
          <mxGeometry x="30" y="190" width="110" height="30" as="geometry" />
        </mxCell>
        <mxCell id="2t71MfV1NQEHH0kRvepr-19" style="edgeStyle=orthogonalEdgeStyle;rounded=0;orthogonalLoop=1;jettySize=auto;html=1;entryX=0.5;entryY=1;entryDx=0;entryDy=0;fontFamily=Helvetica;fontSize=12;fontColor=default;strokeWidth=2;" edge="1" parent="1" source="2t71MfV1NQEHH0kRvepr-20" target="2t71MfV1NQEHH0kRvepr-2">
          <mxGeometry relative="1" as="geometry" />
        </mxCell>
        <mxCell id="2t71MfV1NQEHH0kRvepr-21" value="" style="edgeStyle=orthogonalEdgeStyle;rounded=0;orthogonalLoop=1;jettySize=auto;html=1;entryX=1;entryY=0.5;entryDx=0;entryDy=0;fontFamily=Helvetica;fontSize=12;fontColor=default;endArrow=none;endFill=0;strokeWidth=2;" edge="1" parent="1" source="2t71MfV1NQEHH0kRvepr-6" target="2t71MfV1NQEHH0kRvepr-20">
          <mxGeometry relative="1" as="geometry">
            <mxPoint x="785" y="635" as="sourcePoint" />
            <mxPoint x="-20" y="600" as="targetPoint" />
            <Array as="points" />
          </mxGeometry>
        </mxCell>
        <mxCell id="2t71MfV1NQEHH0kRvepr-26" value="" style="rounded=0;orthogonalLoop=1;jettySize=auto;html=1;fontFamily=Helvetica;fontSize=12;fontColor=default;endArrow=none;endFill=0;edgeStyle=orthogonalEdgeStyle;entryX=0.983;entryY=0.667;entryDx=0;entryDy=0;entryPerimeter=0;strokeWidth=2;" edge="1" parent="1" source="2t71MfV1NQEHH0kRvepr-5" target="2t71MfV1NQEHH0kRvepr-24">
          <mxGeometry relative="1" as="geometry">
            <mxPoint x="485" y="540" as="sourcePoint" />
            <mxPoint x="290" y="500" as="targetPoint" />
            <Array as="points">
              <mxPoint x="485" y="500" />
            </Array>
          </mxGeometry>
        </mxCell>
      </root>
    </mxGraphModel>
  </diagram>
</mxfile>
